# xmcd
#
# Track frame offsets: 
#        150
#        12623
#        25478
#        38405
#        54660
#        75778
#        97687
#        110802
#        129675
#        143668
#        168485
#        186983
#
# Disc length: 2738 seconds
#
# Revision: 1
# Processed by: cddbd v1.5.2PL0 Copyright (c) Steve Scherf et al.
# Submitted via: ExactAudioCopy v0.99pb4
#
DISCID=970ab00c
DTITLE=Catherine Maclellan - Water in the Ground
DYEAR=2009
DGENRE=Folk
TTITLE0=Take A Break
TTITLE1=Water In The Ground
TTITLE2=Hotel Stairs
TTITLE3=Isabel's Song
TTITLE4=Something Gold
TTITLE5=All Those Years
TTITLE6=Set This Heart On Fire
TTITLE7=Sorrows Drown
TTITLE8=Not Much To Do (Not Much To Say)
TTITLE9=Again From The Start
TTITLE10=Everything'll Be Alright
TTITLE11=Flowers On Your Grave
EXTD=
EXTT0=
EXTT1=
EXTT2=
EXTT3=
EXTT4=
EXTT5=
EXTT6=
EXTT7=
EXTT8=
EXTT9=
EXTT10=
EXTT11=
PLAYORDER=
